<?xml version="1.0" encoding="UTF-8"?>
<svg id="Layer_2" data-name="Layer 2" xmlns="http://www.w3.org/2000/svg" viewBox="0 0 191.35 253.3">
  <defs>
    <style>
      .cls-1 {
        fill: #109df5;
      }
    </style>
  </defs>
  <g id="Layer_1-2" data-name="Layer 1">
    <path class="cls-1" d="M190.85,101.83c3.98-26.62-16.28-40.92-43.99-50.47l8.99-36.05-21.95-5.47-8.75,35.1c-5.77-1.44-11.69-2.79-17.58-4.14L116.38,5.47,94.45,0l-8.99,36.04c-4.77-1.09-9.46-2.16-14.01-3.29l.03-.11-30.26-7.56-5.84,23.44s16.28,3.73,15.94,3.96c8.89,2.22,10.49,8.1,10.23,12.76l-10.24,41.07c.61,.16,1.41,.38,2.28,.73-.73-.18-1.51-.38-2.32-.57l-14.35,57.54c-1.09,2.7-3.84,6.75-10.06,5.21,.22,.32-15.95-3.98-15.95-3.98L0,190.37l28.56,7.12c5.31,1.33,10.52,2.73,15.65,4.04l-9.08,36.47,21.92,5.47,8.99-36.08c5.99,1.63,11.8,3.13,17.49,4.54l-8.96,35.91,21.95,5.47,9.08-36.4c37.42,7.08,65.56,4.23,77.41-29.62,9.54-27.25-.48-42.97-20.16-53.22,14.34-3.31,25.14-12.74,28.02-32.22h0s0,0,0,0Zm-50.14,70.31c-6.78,27.25-52.67,12.52-67.55,8.83l12.05-48.31c14.88,3.71,62.58,11.06,55.49,39.49h0Zm6.79-70.71c-6.19,24.79-44.38,12.2-56.77,9.11l10.93-43.82c12.39,3.09,52.29,8.85,45.84,34.71h0Z"/>
  </g>
</svg>