<?xml version="1.0" encoding="UTF-8"?>
<svg id="Layer_2" data-name="Layer 2" xmlns="http://www.w3.org/2000/svg" viewBox="0 0 400 400">
  <defs>
    <style>
      .cls-1 {
        fill: #f9f9f9;
      }

      .cls-2 {
        fill: #f7931a;
      }
    </style>
  </defs>
  <g id="Layer_1-2" data-name="Layer 1">
    <circle class="cls-2" cx="200" cy="200" r="200"/>
    <g>
      <path class="cls-1" d="M71.93,199.06c2.76-2.6,5.58-5.14,8.27-7.81,19.1-19.04,38.24-38.03,57.17-57.24,3.45-3.5,5.75-3.27,9.03,.01,8.44,8.45,8.48,8.29-.16,16.87-16.52,16.41-32.96,32.91-50.31,50.24,5.83,5.57,11.54,10.84,17.05,16.33,12.51,12.45,24.84,25.07,37.41,37.45,3.29,3.24,3.05,5.63,0,8.78-8.35,8.63-8.23,8.67-16.74,.13-20.55-20.61-41.15-41.18-61.72-61.76,0-1,0-2,0-3Z"/>
      <path class="cls-1" d="M221.38,104.39c4.54,1.42,8.13,2.2,11.42,3.67,3.3,1.47,2.05,4.36,1.3,6.95-7.44,25.65-14.86,51.3-22.27,76.95-9.39,32.5-18.72,65.02-28.25,97.47-.7,2.39-3.04,6.29-4.31,6.18-4.31-.4-8.58-2.06-12.6-3.83-.65-.29-.35-3.7,.16-5.49,11.84-41.29,23.76-82.56,35.68-123.83,5.11-17.69,10.21-35.38,15.47-53.02,.54-1.82,2.2-3.32,3.39-5.05Z"/>
      <path class="cls-1" d="M304.66,201.36c-18.93-18.95-36.58-36.61-54.22-54.27-4.28-4.29-4.35-4.93-.07-9.23,8.38-8.4,6.93-9.53,16.35-.15,19.22,19.15,38.48,38.26,57.72,57.39,4.76,4.73,4.81,5.51,.25,10.07-20.71,20.72-41.49,41.38-62.12,62.17-3.15,3.18-5.56,3.44-8.72,.15-8.73-9.11-9.8-7.32,.06-17.06,15.39-15.21,30.69-30.51,46.08-45.73,1.29-1.28,2.98-2.15,4.66-3.34Z"/>
    </g>
  </g>
</svg>