<?xml version="1.0" encoding="UTF-8"?>
<svg id="Layer_2" data-name="Layer 2" xmlns="http://www.w3.org/2000/svg" viewBox="0 0 310.13 231.53">
  <defs>
    <style>
      .cls-1 {
        fill: #109df5;
      }
    </style>
  </defs>
  <g id="Layer_1-2" data-name="Layer 1">
    <g>
      <path class="cls-1" d="M0,114.63c3.34-3.15,6.76-6.22,10.01-9.46,23.12-23.05,46.3-46.05,69.23-69.3,4.18-4.23,6.96-3.96,10.93,.01,10.22,10.23,10.27,10.04-.19,20.43-20,19.87-39.91,39.84-60.92,60.83,7.05,6.74,13.97,13.13,20.64,19.77,15.14,15.07,30.07,30.36,45.3,45.34,3.99,3.92,3.69,6.82,.01,10.63-10.11,10.46-9.97,10.49-20.27,.16C49.85,168.09,24.91,143.18,0,118.26c0-1.21,0-2.42,0-3.63Z"/>
      <path class="cls-1" d="M180.95,0c5.5,1.72,9.85,2.67,13.83,4.45,3.99,1.78,2.48,5.28,1.58,8.41-9,31.05-17.99,62.11-26.96,93.17-11.37,39.35-22.66,78.72-34.2,118.02-.85,2.9-3.68,7.62-5.22,7.48-5.21-.48-10.38-2.49-15.25-4.64-.78-.35-.43-4.49,.19-6.65,14.33-50,28.76-99.96,43.2-149.93,6.19-21.42,12.36-42.84,18.74-64.2,.66-2.21,2.66-4.02,4.11-6.12Z"/>
      <path class="cls-1" d="M281.79,117.41c-22.92-22.95-44.29-44.33-65.65-65.71-5.19-5.19-5.27-5.97-.08-11.17,10.15-10.17,8.39-11.54,19.79-.18,23.27,23.19,46.6,46.32,69.89,69.48,5.76,5.73,5.83,6.67,.31,12.19-25.07,25.09-50.23,50.1-75.21,75.28-3.81,3.84-6.74,4.17-10.56,.18-10.57-11.03-11.87-8.86,.07-20.66,18.64-18.42,37.16-36.95,55.8-55.36,1.56-1.55,3.61-2.61,5.64-4.04Z"/>
    </g>
  </g>
</svg>