<?xml version="1.0" encoding="UTF-8"?>
<svg id="Layer_2" data-name="Layer 2" xmlns="http://www.w3.org/2000/svg" viewBox="0 0 400 400">
  <defs>
    <style>
      .cls-1 {
        fill: #f7931a;
      }

      .cls-2 {
        fill: #fefdfa;
      }
    </style>
  </defs>
  <g id="Layer_1-2" data-name="Layer 1">
    <g>
      <circle class="cls-1" cx="200" cy="200" r="200"/>
      <g>
        <path class="cls-2" d="M234.52,305.46c-23.62,1.02-45.21,.99-68.55,.04,6.29-5.96,10.05-11.6,10.23-19.08,.08-3.54,3.31-3.97,5.99-3.99,12.19-.08,24.38,0,36.57,.07,2.61,.01,5.1,.61,5.15,3.86,.1,7.35,3.82,12.86,10.61,19.09Z"/>
        <path class="cls-2" d="M148,226.73c10.02-.44,14.8-6.41,17.36-15.13,1.7-5.78,5.55-9.16,11.87-8.68,6.34,.48,13.78,6.37,14.81,11.5,1.15,5.72-2.85,7.87-7.01,9.58-11.9,4.9-24.34,4.1-37.03,2.73Z"/>
        <g>
          <path class="cls-2" d="M264.52,139.52c5.63-8.76,9.53-16.98,21.07-14.84,3.78,.7,7.8,.16,11.7,.2,12.39,.12,14.69,2.36,14.73,15.14,.09,27.85,.09,55.7,.08,83.54,0,12.7-.03,25.41-.25,38.11-.19,10.92-1.56,12.31-12.27,12.65-8.79,.28-17.58,.37-26.38,.37-53.25,0-106.5-.05-159.75-.11-4.88,0-9.77-.34-14.65-.27-7.35,.11-10.58-3.31-10.56-10.69,.04-19.3-.3-38.59-.34-57.89-.05-22.47,0-44.95,.11-67.42,.05-10.08,3.11-13.18,13.04-13.22,39.08-.15,78.16-.15,117.24-.38,5.66-.03,6.68,.84,3.67,6.25-3.61,6.47-7.9,8.89-15.52,8.78-32.24-.49-64.48-.05-96.72-.35-5.89-.05-7.31,1.69-7.26,7.38,.26,31.75,.27,63.51,0,95.27-.05,5.59,1.64,6.96,7.02,6.95,60.33-.17,120.67-.17,181,0,5.27,.01,7.15-1.17,7.1-6.86-.28-32-.3-64,0-96,.06-5.86-2.05-6.92-7.2-6.68-8.18,.38-16.39,.1-25.86,.1Z"/>
          <path class="cls-2" d="M254.55,100.01c2.62-3.57,6.35-5.31,10.53-6.01,8.57-1.43,14.95,4.49,14.13,13.17-.45,4.73-2.38,8.84-5.66,12.43-25.38,27.78-50.73,55.59-75.96,83.52-2.8,3.1-5.18,3.43-7.85,.54-1.99-2.16-7.08-3.19-3.67-7.84,23.27-31.68,44.68-64.69,68.65-95.88,2.13,1.34-.27,5.98,3.28,5.58,3.06-.34,4.57-3.52,5.65-6.26-3.61-3.29-5.88,2.8-9.11,.75Z"/>
        </g>
      </g>
    </g>
  </g>
</svg>