<?xml version="1.0" encoding="UTF-8"?>
<svg id="Layer_2" data-name="Layer 2" xmlns="http://www.w3.org/2000/svg" viewBox="0 0 195.3 172.73">
  <defs>
    <style>
      .cls-1 {
        fill: #3a88c8;
      }
    </style>
  </defs>
  <g id="Layer_1-2" data-name="Layer 1">
    <g>
      <path class="cls-1" d="M104.09,172.73V.17h11.48V141.98c16.56-17.77,32.75-35.13,49.48-53.08h-45.36c.67-1.45,1.31-2.9,2.02-4.32,10.56-21.16,21.12-42.32,31.69-63.48q3.82-7.65,13.88-6.95c-.66,3.33-.65,6.85-2.03,9.71-7.46,15.48-15.27,30.79-22.94,46.17-.79,1.57-1.43,3.22-2.12,4.79h55.12c-30.62,32.87-60.79,65.26-91.21,97.9Z"/>
      <path class="cls-1" d="M86.87,13.75h-10.25V0h22.4V171.08C66.44,139.31,33.62,107.3,0,74.52H81.93v13.68H33.18c18.39,17.95,36.19,35.32,53.69,52.4V13.75Z"/>
    </g>
  </g>
</svg>